<?xml version="1.0" encoding="UTF-8" standalone="no"?>
<!DOCTYPE svg PUBLIC "-//W3C//DTD SVG 1.1//EN"
 "http://www.w3.org/Graphics/SVG/1.1/DTD/svg11.dtd">
<!-- Generated by graphviz version 2.40.1 (20161225.0304)
 -->
<!-- Title: AppClass Pages: 1 -->
<svg width="2116pt" height="1093pt"
 viewBox="0.00 0.00 2116.39 1092.80" xmlns="http://www.w3.org/2000/svg" xmlns:xlink="http://www.w3.org/1999/xlink">
<g id="graph0" class="graph" transform="scale(1 1) rotate(0) translate(4 1088.8)">
<title>AppClass</title>
<polygon fill="#ffffff" stroke="transparent" points="-4,4 -4,-1088.8 2112.3872,-1088.8 2112.3872,4 -4,4"/>
<g id="clust1" class="cluster">
<title>cluster_Map1</title>
<polygon fill="none" stroke="#000000" points="8,-8 8,-1076.8 2089,-1076.8 2089,-8 8,-8"/>
<text text-anchor="middle" x="1048.5" y="-1060.2" font-family="Times,serif" font-size="14.00" fill="#000000">Map1</text>
</g>
<!-- Map1::Start -->
<g id="node1" class="node">
<title>Map1::Start</title>
<path fill="none" stroke="#000000" d="M906,-914.5C906,-914.5 990,-914.5 990,-914.5 996,-914.5 1002,-920.5 1002,-926.5 1002,-926.5 1002,-938.5 1002,-938.5 1002,-944.5 996,-950.5 990,-950.5 990,-950.5 906,-950.5 906,-950.5 900,-950.5 894,-944.5 894,-938.5 894,-938.5 894,-926.5 894,-926.5 894,-920.5 900,-914.5 906,-914.5"/>
<text text-anchor="middle" x="947.7195" y="-928.4" font-family="Times,serif" font-size="14.00" fill="#000000">Start</text>
</g>
<!-- Map1::Start&#45;&gt;Map1::Start -->
<g id="edge2" class="edge">
<title>Map1::Start&#45;&gt;Map1::Start</title>
<path fill="none" stroke="#000000" d="M1002.0073,-933.9333C1012.5286,-933.7668 1020,-933.2891 1020,-932.5 1020,-932.0068 1017.0815,-931.6353 1012.3239,-931.3853"/>
<polygon fill="#000000" stroke="#000000" points="1012.1106,-927.8772 1002.0073,-931.0667 1011.8944,-934.8738 1012.1106,-927.8772"/>
<text text-anchor="start" x="1020" y="-936.7" font-family="Times,serif" font-size="14.00" fill="#000000">Dash()/</text>
<text text-anchor="start" x="1020" y="-919.9" font-family="Times,serif" font-size="14.00" fill="#000000">Unacceptable();</text>
</g>
<!-- Map1::Start&#45;&gt;Map1::Start -->
<g id="edge3" class="edge">
<title>Map1::Start&#45;&gt;Map1::Start</title>
<path fill="none" stroke="#000000" d="M1002.0557,-935.1455C1050.0769,-936.0693 1109.3872,-935.1875 1109.3872,-932.5 1109.3872,-930.0015 1058.1242,-929.0636 1012.3281,-929.6864"/>
<polygon fill="#000000" stroke="#000000" points="1011.997,-926.1913 1002.0557,-929.8545 1012.1116,-933.1903 1011.997,-926.1913"/>
<text text-anchor="start" x="1109.3872" y="-936.7" font-family="Times,serif" font-size="14.00" fill="#000000">Exclam()/</text>
<text text-anchor="start" x="1109.3872" y="-919.9" font-family="Times,serif" font-size="14.00" fill="#000000">Unacceptable();</text>
</g>
<!-- Map1::Start&#45;&gt;Map1::Start -->
<g id="edge4" class="edge">
<title>Map1::Start&#45;&gt;Map1::Start</title>
<path fill="none" stroke="#000000" d="M1002.0759,-935.8662C1077.649,-938.1279 1198.7744,-937.0059 1198.7744,-932.5 1198.7744,-928.1966 1088.2869,-926.9797 1012.5213,-928.8495"/>
<polygon fill="#000000" stroke="#000000" points="1011.977,-925.3629 1002.0759,-929.1338 1012.1675,-932.3603 1011.977,-925.3629"/>
<text text-anchor="start" x="1198.7744" y="-936.7" font-family="Times,serif" font-size="14.00" fill="#000000">Letter()/</text>
<text text-anchor="start" x="1198.7744" y="-919.9" font-family="Times,serif" font-size="14.00" fill="#000000">Unacceptable();</text>
</g>
<!-- Map1::Start&#45;&gt;Map1::Start -->
<g id="edge5" class="edge">
<title>Map1::Start&#45;&gt;Map1::Start</title>
<path fill="none" stroke="#000000" d="M1002.1058,-936.4401C1100.6778,-940.1571 1288.1616,-938.8437 1288.1616,-932.5 1288.1616,-926.3669 1112.9212,-924.9357 1012.2084,-928.2063"/>
<polygon fill="#000000" stroke="#000000" points="1011.9772,-924.7122 1002.1058,-928.5599 1012.2221,-931.7079 1011.9772,-924.7122"/>
<text text-anchor="start" x="1288.1616" y="-936.7" font-family="Times,serif" font-size="14.00" fill="#000000">Number()/</text>
<text text-anchor="start" x="1288.1616" y="-919.9" font-family="Times,serif" font-size="14.00" fill="#000000">Unacceptable();</text>
</g>
<!-- Map1::Start&#45;&gt;Map1::Start -->
<g id="edge6" class="edge">
<title>Map1::Start&#45;&gt;Map1::Start</title>
<path fill="none" stroke="#000000" d="M1002.0347,-936.922C1120.7998,-942.1771 1377.5488,-940.7031 1377.5488,-932.5 1377.5488,-924.5212 1134.6488,-922.9085 1012.0786,-927.662"/>
<polygon fill="#000000" stroke="#000000" points="1011.8813,-924.1671 1002.0347,-928.078 1012.171,-931.1611 1011.8813,-924.1671"/>
<text text-anchor="start" x="1377.5488" y="-936.7" font-family="Times,serif" font-size="14.00" fill="#000000">Sign()/</text>
<text text-anchor="start" x="1377.5488" y="-919.9" font-family="Times,serif" font-size="14.00" fill="#000000">Unacceptable();</text>
</g>
<!-- Map1::Start&#45;&gt;Map1::Start -->
<g id="edge7" class="edge">
<title>Map1::Start&#45;&gt;Map1::Start</title>
<path fill="none" stroke="#000000" d="M1002.4476,-937.3661C1139.7614,-944.1884 1466.936,-942.5664 1466.936,-932.5 1466.936,-922.6794 1155.5417,-920.8958 1012.8367,-927.1493"/>
<polygon fill="#000000" stroke="#000000" points="1012.2736,-923.6717 1002.4476,-927.6339 1012.5998,-930.6641 1012.2736,-923.6717"/>
<text text-anchor="start" x="1466.936" y="-936.7" font-family="Times,serif" font-size="14.00" fill="#000000">Htag()/</text>
<text text-anchor="start" x="1466.936" y="-919.9" font-family="Times,serif" font-size="14.00" fill="#000000">Unacceptable();</text>
</g>
<!-- Map1::Start&#45;&gt;Map1::Start -->
<g id="edge8" class="edge">
<title>Map1::Start&#45;&gt;Map1::Start</title>
<path fill="none" stroke="#000000" d="M1002.0148,-937.7221C1155.9612,-946.2036 1556.3232,-944.4629 1556.3232,-932.5 1556.3232,-920.7941 1172.9795,-918.8759 1012.272,-926.7454"/>
<polygon fill="#000000" stroke="#000000" points="1011.8199,-923.2641 1002.0148,-927.2779 1012.1829,-930.2547 1011.8199,-923.2641"/>
<text text-anchor="start" x="1556.3232" y="-936.7" font-family="Times,serif" font-size="14.00" fill="#000000">EOS()/</text>
<text text-anchor="start" x="1556.3232" y="-919.9" font-family="Times,serif" font-size="14.00" fill="#000000">Unacceptable();</text>
</g>
<!-- Map1::LArrs -->
<g id="node2" class="node">
<title>Map1::LArrs</title>
<path fill="none" stroke="#000000" d="M973,-769.9C973,-769.9 1057,-769.9 1057,-769.9 1063,-769.9 1069,-775.9 1069,-781.9 1069,-781.9 1069,-793.9 1069,-793.9 1069,-799.9 1063,-805.9 1057,-805.9 1057,-805.9 973,-805.9 973,-805.9 967,-805.9 961,-799.9 961,-793.9 961,-793.9 961,-781.9 961,-781.9 961,-775.9 967,-769.9 973,-769.9"/>
<text text-anchor="middle" x="1014.7125" y="-783.8" font-family="Times,serif" font-size="14.00" fill="#000000">LArrs</text>
</g>
<!-- Map1::Start&#45;&gt;Map1::LArrs -->
<g id="edge1" class="edge">
<title>Map1::Start&#45;&gt;Map1::LArrs</title>
<path fill="none" stroke="#000000" d="M893.5776,-917.4662C849.5432,-902.4735 798.5269,-876.8702 822.8078,-843.4 838.7838,-821.3777 854.9351,-832.1998 881,-824.4 881.9428,-824.1179 916.8023,-814.6231 950.7255,-805.3894"/>
<polygon fill="#000000" stroke="#000000" points="951.9808,-808.6751 960.7106,-802.6717 950.1424,-801.9208 951.9808,-808.6751"/>
<text text-anchor="start" x="822" y="-856" font-family="Times,serif" font-size="14.00" fill="#000000">LArr()/</text>
</g>
<!-- Map1::Error -->
<g id="node7" class="node">
<title>Map1::Error</title>
<path fill="none" stroke="#000000" d="M1004,-16.5C1004,-16.5 1088,-16.5 1088,-16.5 1094,-16.5 1100,-22.5 1100,-28.5 1100,-28.5 1100,-138.1 1100,-138.1 1100,-144.1 1094,-150.1 1088,-150.1 1088,-150.1 1004,-150.1 1004,-150.1 998,-150.1 992,-144.1 992,-138.1 992,-138.1 992,-28.5 992,-28.5 992,-22.5 998,-16.5 1004,-16.5"/>
<text text-anchor="middle" x="1045.7125" y="-133.5" font-family="Times,serif" font-size="14.00" fill="#000000">Error</text>
<polyline fill="none" stroke="#000000" points="992,-125.3 1099.425,-125.3 "/>
<text text-anchor="start" x="1000" y="-108.7" font-family="Times,serif" font-size="14.00" fill="#000000">Exclam()/</text>
<text text-anchor="start" x="1000" y="-91.9" font-family="Times,serif" font-size="14.00" fill="#000000">Letter()/</text>
<text text-anchor="start" x="1000" y="-75.1" font-family="Times,serif" font-size="14.00" fill="#000000">Number()/</text>
<text text-anchor="start" x="1000" y="-58.3" font-family="Times,serif" font-size="14.00" fill="#000000">Sign()/</text>
<text text-anchor="start" x="1000" y="-41.5" font-family="Times,serif" font-size="14.00" fill="#000000">Htag()/</text>
<text text-anchor="start" x="1000" y="-24.7" font-family="Times,serif" font-size="14.00" fill="#000000">Unknown()/</text>
</g>
<!-- Map1::Start&#45;&gt;Map1::Error -->
<g id="edge9" class="edge">
<title>Map1::Start&#45;&gt;Map1::Error</title>
<path fill="none" stroke="#000000" d="M893.9166,-932.1192C714.0333,-930.597 142.8083,-923.6175 65,-896 39.9196,-887.0979 17,-886.8134 17,-860.2 17,-860.2 17,-860.2 17,-680.3 17,-609.6725 34,-592.9275 34,-522.3 34,-522.3 34,-522.3 34,-204.4 34,-108.5449 759.0375,-88.1977 981.7285,-84.2089"/>
<polygon fill="#000000" stroke="#000000" points="982.0107,-87.7046 991.9483,-84.0311 981.8889,-80.7057 982.0107,-87.7046"/>
<text text-anchor="start" x="33" y="-561.8" font-family="Times,serif" font-size="14.00" fill="#000000">Unknown()/</text>
<text text-anchor="start" x="33" y="-545" font-family="Times,serif" font-size="14.00" fill="#000000">Unacceptable();</text>
</g>
<!-- Map1::LArrs&#45;&gt;Map1::Start -->
<g id="edge11" class="edge">
<title>Map1::LArrs&#45;&gt;Map1::Start</title>
<path fill="none" stroke="#000000" d="M964.5624,-805.9837C937.1665,-816.938 907.3326,-831.1204 899.6128,-843.4 886.4966,-864.2633 902.1975,-888.9547 919.1195,-907.0476"/>
<polygon fill="#000000" stroke="#000000" points="916.8433,-909.7232 926.3661,-914.3673 921.8179,-904.7983 916.8433,-909.7232"/>
<text text-anchor="start" x="899" y="-864.4" font-family="Times,serif" font-size="14.00" fill="#000000">LArr()/</text>
<text text-anchor="start" x="899" y="-847.6" font-family="Times,serif" font-size="14.00" fill="#000000">Unacceptable();</text>
</g>
<!-- Map1::LArrs&#45;&gt;Map1::Start -->
<g id="edge12" class="edge">
<title>Map1::LArrs&#45;&gt;Map1::Start</title>
<path fill="none" stroke="#000000" d="M1011.6751,-805.9999C1007.8333,-824.5063 1000.5196,-853.7544 989,-877 984.0016,-887.0864 977.1485,-897.246 970.4757,-906.066"/>
<polygon fill="#000000" stroke="#000000" points="967.6184,-904.0376 964.1997,-914.0657 973.1259,-908.3583 967.6184,-904.0376"/>
<text text-anchor="start" x="1001" y="-864.4" font-family="Times,serif" font-size="14.00" fill="#000000">Exclam()/</text>
<text text-anchor="start" x="1001" y="-847.6" font-family="Times,serif" font-size="14.00" fill="#000000">Unacceptable();</text>
</g>
<!-- Map1::LArrs&#45;&gt;Map1::Start -->
<g id="edge13" class="edge">
<title>Map1::LArrs&#45;&gt;Map1::Start</title>
<path fill="none" stroke="#000000" d="M1055.3138,-805.9942C1070.2893,-814.9486 1085.6537,-827.3364 1094,-843.4 1100.8851,-856.6514 1102.4783,-864.7068 1094,-877 1083.9734,-891.5381 1046.3532,-905.65 1011.8146,-916.0058"/>
<polygon fill="#000000" stroke="#000000" points="1010.7952,-912.6573 1002.1802,-918.8243 1012.7606,-919.3757 1010.7952,-912.6573"/>
<text text-anchor="start" x="1099" y="-864.4" font-family="Times,serif" font-size="14.00" fill="#000000">Letter()/</text>
<text text-anchor="start" x="1099" y="-847.6" font-family="Times,serif" font-size="14.00" fill="#000000">Unacceptable();</text>
</g>
<!-- Map1::LArrs&#45;&gt;Map1::Start -->
<g id="edge14" class="edge">
<title>Map1::LArrs&#45;&gt;Map1::Start</title>
<path fill="none" stroke="#000000" d="M1069.0609,-795.021C1133.8777,-805.7949 1229.3939,-830.1454 1192,-877 1169.8783,-904.7185 1076.7302,-919.6554 1012.1484,-926.8397"/>
<polygon fill="#000000" stroke="#000000" points="1011.6121,-923.3772 1002.044,-927.927 1012.3611,-930.337 1011.6121,-923.3772"/>
<text text-anchor="start" x="1200" y="-864.4" font-family="Times,serif" font-size="14.00" fill="#000000">Number()/</text>
<text text-anchor="start" x="1200" y="-847.6" font-family="Times,serif" font-size="14.00" fill="#000000">Unacceptable();</text>
</g>
<!-- Map1::LArrs&#45;&gt;Map1::Start -->
<g id="edge15" class="edge">
<title>Map1::LArrs&#45;&gt;Map1::Start</title>
<path fill="none" stroke="#000000" d="M1069.2839,-795.0096C1146.1225,-805.6229 1278.8974,-826.2036 1293,-843.4 1302.4696,-854.9469 1302.6847,-865.6329 1293,-877 1275.0401,-898.0801 1107.1813,-917.3244 1012.397,-926.6272"/>
<polygon fill="#000000" stroke="#000000" points="1011.9527,-923.1538 1002.3378,-927.6041 1012.6294,-930.121 1011.9527,-923.1538"/>
<text text-anchor="start" x="1300" y="-864.4" font-family="Times,serif" font-size="14.00" fill="#000000">Sign()/</text>
<text text-anchor="start" x="1300" y="-847.6" font-family="Times,serif" font-size="14.00" fill="#000000">Unacceptable();</text>
</g>
<!-- Map1::LArrs&#45;&gt;Map1::Start -->
<g id="edge16" class="edge">
<title>Map1::LArrs&#45;&gt;Map1::Start</title>
<path fill="none" stroke="#000000" d="M960.6522,-803.7067C956.0587,-804.7311 951.4643,-805.6504 947,-806.4 829.2684,-826.1669 797.4936,-809.8841 679,-824.4 631.3251,-830.2404 603.4463,-806.572 572.6128,-843.4 563.0264,-854.8501 563.0264,-865.5499 572.6128,-877 592.2897,-900.5024 781.7523,-919.1652 883.7375,-927.6038"/>
<polygon fill="#000000" stroke="#000000" points="883.6731,-931.1101 893.9252,-928.4369 884.2437,-924.1334 883.6731,-931.1101"/>
<text text-anchor="start" x="572" y="-864.4" font-family="Times,serif" font-size="14.00" fill="#000000">Htag()/</text>
<text text-anchor="start" x="572" y="-847.6" font-family="Times,serif" font-size="14.00" fill="#000000">Unacceptable();</text>
</g>
<!-- Map1::LArrs&#45;&gt;Map1::Start -->
<g id="edge17" class="edge">
<title>Map1::LArrs&#45;&gt;Map1::Start</title>
<path fill="none" stroke="#000000" d="M960.9324,-803.145C956.2349,-804.3067 951.5426,-805.4103 947,-806.4 897.6213,-817.1586 755.312,-804.8673 722.6128,-843.4 674.2636,-900.3746 801.4637,-921.1795 883.9165,-928.5791"/>
<polygon fill="#000000" stroke="#000000" points="883.723,-932.0752 893.984,-929.4367 884.3172,-925.1005 883.723,-932.0752"/>
<text text-anchor="start" x="722" y="-864.4" font-family="Times,serif" font-size="14.00" fill="#000000">EOS()/</text>
<text text-anchor="start" x="722" y="-847.6" font-family="Times,serif" font-size="14.00" fill="#000000">Unacceptable();</text>
</g>
<!-- Map1::Dashed -->
<g id="node3" class="node">
<title>Map1::Dashed</title>
<path fill="none" stroke="#000000" d="M878,-618.6C878,-618.6 962,-618.6 962,-618.6 968,-618.6 974,-624.6 974,-630.6 974,-630.6 974,-642.6 974,-642.6 974,-648.6 968,-654.6 962,-654.6 962,-654.6 878,-654.6 878,-654.6 872,-654.6 866,-648.6 866,-642.6 866,-642.6 866,-630.6 866,-630.6 866,-624.6 872,-618.6 878,-618.6"/>
<text text-anchor="middle" x="919.9902" y="-632.5" font-family="Times,serif" font-size="14.00" fill="#000000">Dashed</text>
</g>
<!-- Map1::LArrs&#45;&gt;Map1::Dashed -->
<g id="edge10" class="edge">
<title>Map1::LArrs&#45;&gt;Map1::Dashed</title>
<path fill="none" stroke="#000000" d="M1003.5408,-769.6497C986.9218,-743.1818 956.024,-693.9729 936.82,-663.3881"/>
<polygon fill="#000000" stroke="#000000" points="939.7816,-661.5228 931.4999,-654.915 933.8534,-665.2452 939.7816,-661.5228"/>
<text text-anchor="start" x="980" y="-711.4" font-family="Times,serif" font-size="14.00" fill="#000000">Dash()/</text>
</g>
<!-- Map1::LArrs&#45;&gt;Map1::Error -->
<g id="edge18" class="edge">
<title>Map1::LArrs&#45;&gt;Map1::Error</title>
<path fill="none" stroke="#000000" d="M1019.5789,-769.5348C1022.0219,-758.7881 1024.7719,-744.9131 1026,-732.4 1031.2535,-678.8721 1015.1472,-664.4516 1024,-611.4 1028.0335,-587.2287 1083.6682,-424.1974 1095.6128,-402.8 1105.9849,-384.2195 1118.8276,-385.8343 1126,-365.8 1131.0334,-351.7405 1131.8252,-345.9503 1126,-332.2 1103.0726,-278.0802 1053.9274,-294.3198 1031,-240.2 1020.4939,-215.4006 1020.2838,-186.4775 1024.0057,-160.2676"/>
<polygon fill="#000000" stroke="#000000" points="1027.4648,-160.8009 1025.6113,-150.3695 1020.5551,-159.68 1027.4648,-160.8009"/>
<text text-anchor="start" x="1095" y="-457.5" font-family="Times,serif" font-size="14.00" fill="#000000">Unknown()/</text>
<text text-anchor="start" x="1095" y="-440.7" font-family="Times,serif" font-size="14.00" fill="#000000">Unacceptable();</text>
</g>
<!-- Map1::Dashed&#45;&gt;Map1::Start -->
<g id="edge21" class="edge">
<title>Map1::Dashed&#45;&gt;Map1::Start</title>
<path fill="none" stroke="#000000" d="M923.1135,-654.6504C925.6897,-676.0248 926.2848,-711.3702 907,-732.4 856.3851,-787.5947 809.9987,-736.728 742.6128,-769.4 719.1246,-780.7882 721.0925,-796.353 697,-806.4 628.9146,-834.7928 596.5394,-788.6726 532,-824.4 503.5546,-840.1467 495.0012,-872.0594 517,-896 541.2907,-922.4348 769.7849,-929.7433 883.8542,-931.7494"/>
<polygon fill="#000000" stroke="#000000" points="883.8037,-935.2489 893.8609,-931.9169 883.9209,-928.2499 883.8037,-935.2489"/>
<text text-anchor="start" x="742" y="-792.1" font-family="Times,serif" font-size="14.00" fill="#000000">LArr()/</text>
<text text-anchor="start" x="742" y="-775.3" font-family="Times,serif" font-size="14.00" fill="#000000">Unacceptable();</text>
</g>
<!-- Map1::Dashed&#45;&gt;Map1::Start -->
<g id="edge22" class="edge">
<title>Map1::Dashed&#45;&gt;Map1::Start</title>
<path fill="none" stroke="#000000" d="M925.3313,-654.9209C930.183,-675.5918 934.4715,-709.3308 919,-732.4 902.3045,-757.2944 884.9461,-749.4076 862.6128,-769.4 846.7104,-783.6355 850.9571,-796.5938 832,-806.4 784.693,-830.8712 643.7955,-808.381 593,-824.4 577.2256,-829.3747 569.1825,-829.0255 561,-843.4 553.6124,-856.378 552.2683,-864.8855 561,-877 579.604,-902.8116 778.5716,-920.5865 883.7092,-928.2502"/>
<polygon fill="#000000" stroke="#000000" points="883.6648,-931.756 893.8901,-928.9821 884.1668,-924.774 883.6648,-931.756"/>
<text text-anchor="start" x="862" y="-792.1" font-family="Times,serif" font-size="14.00" fill="#000000">Dash()/</text>
<text text-anchor="start" x="862" y="-775.3" font-family="Times,serif" font-size="14.00" fill="#000000">Unacceptable();</text>
</g>
<!-- Map1::Dashed&#45;&gt;Map1::Start -->
<g id="edge23" class="edge">
<title>Map1::Dashed&#45;&gt;Map1::Start</title>
<path fill="none" stroke="#000000" d="M954.8056,-654.638C1018.5802,-687.305 1158.9064,-757.4101 1281.6128,-806.4 1346.4281,-832.2772 1458.1274,-802.913 1393,-877 1368.3011,-905.0968 1129.8568,-922.2882 1012.5398,-929.1121"/>
<polygon fill="#000000" stroke="#000000" points="1012.041,-925.6348 1002.2578,-929.7016 1012.4417,-932.6233 1012.041,-925.6348"/>
<text text-anchor="start" x="1281" y="-792.1" font-family="Times,serif" font-size="14.00" fill="#000000">Number()/</text>
<text text-anchor="start" x="1281" y="-775.3" font-family="Times,serif" font-size="14.00" fill="#000000">Unacceptable();</text>
</g>
<!-- Map1::Dashed&#45;&gt;Map1::Start -->
<g id="edge24" class="edge">
<title>Map1::Dashed&#45;&gt;Map1::Start</title>
<path fill="none" stroke="#000000" d="M974.2958,-652.2817C1093.3445,-686.7056 1367.1006,-766.1009 1371,-769.4 1376.7577,-774.2712 1431.6167,-843.3833 1407,-877 1384.0464,-908.3456 1133.2834,-924.0228 1012.4139,-929.8026"/>
<polygon fill="#000000" stroke="#000000" points="1012.0101,-926.3176 1002.1853,-930.2829 1012.3385,-933.3099 1012.0101,-926.3176"/>
<text text-anchor="start" x="1397" y="-792.1" font-family="Times,serif" font-size="14.00" fill="#000000">Sign()/</text>
<text text-anchor="start" x="1397" y="-775.3" font-family="Times,serif" font-size="14.00" fill="#000000">Unacceptable();</text>
</g>
<!-- Map1::Dashed&#45;&gt;Map1::Start -->
<g id="edge25" class="edge">
<title>Map1::Dashed&#45;&gt;Map1::Start</title>
<path fill="none" stroke="#000000" d="M910.2144,-654.7861C895.407,-682.2337 868.826,-731.1985 867,-732.4 797.161,-778.3552 554.873,-713.6054 492.6128,-769.4 450.3926,-807.2357 438.4918,-854.3922 477,-896 490.5971,-910.6916 757.465,-924.2061 883.3351,-929.792"/>
<polygon fill="#000000" stroke="#000000" points="883.4634,-933.3009 893.6076,-930.2442 883.7713,-926.3077 883.4634,-933.3009"/>
<text text-anchor="start" x="492" y="-792.1" font-family="Times,serif" font-size="14.00" fill="#000000">Htag()/</text>
<text text-anchor="start" x="492" y="-775.3" font-family="Times,serif" font-size="14.00" fill="#000000">Unacceptable();</text>
</g>
<!-- Map1::Dashed&#45;&gt;Map1::Start -->
<g id="edge26" class="edge">
<title>Map1::Dashed&#45;&gt;Map1::Start</title>
<path fill="none" stroke="#000000" d="M918.0497,-654.6704C914.6378,-676.7526 905.4305,-713.5021 881,-732.4 782.6224,-808.4987 707.143,-700.475 603.6128,-769.4 587.7602,-779.9538 596.8495,-794.476 582,-806.4 550.8243,-831.4339 518.1026,-807.7501 500,-843.4 493.2388,-856.715 495.8493,-862.6551 500,-877 502.7761,-886.5941 503.4619,-890.8179 512,-896 542.973,-914.7985 769.9564,-925.8505 883.5777,-930.261"/>
<polygon fill="#000000" stroke="#000000" points="883.7517,-933.7701 893.8781,-930.6547 884.0191,-926.7752 883.7517,-933.7701"/>
<text text-anchor="start" x="603" y="-792.1" font-family="Times,serif" font-size="14.00" fill="#000000">EOS()/</text>
<text text-anchor="start" x="603" y="-775.3" font-family="Times,serif" font-size="14.00" fill="#000000">Unacceptable();</text>
</g>
<!-- Map1::Name -->
<g id="node4" class="node">
<title>Map1::Name</title>
<path fill="none" stroke="#000000" d="M747.6141,-403.3C747.6141,-403.3 928.3859,-403.3 928.3859,-403.3 934.3859,-403.3 940.3859,-409.3 940.3859,-415.3 940.3859,-415.3 940.3859,-491.3 940.3859,-491.3 940.3859,-497.3 934.3859,-503.3 928.3859,-503.3 928.3859,-503.3 747.6141,-503.3 747.6141,-503.3 741.6141,-503.3 735.6141,-497.3 735.6141,-491.3 735.6141,-491.3 735.6141,-415.3 735.6141,-415.3 735.6141,-409.3 741.6141,-403.3 747.6141,-403.3"/>
<text text-anchor="middle" x="838" y="-486.7" font-family="Times,serif" font-size="14.00" fill="#000000">Name</text>
<polyline fill="none" stroke="#000000" points="735.6141,-478.5 940.3859,-478.5 "/>
<text text-anchor="start" x="743.6141" y="-461.9" font-family="Times,serif" font-size="14.00" fill="#000000">Letter()</text>
<text text-anchor="start" x="743.6141" y="-445.1" font-family="Times,serif" font-size="14.00" fill="#000000">[ctxt.length_available() == True]/</text>
<text text-anchor="start" x="743.6141" y="-428.3" font-family="Times,serif" font-size="14.00" fill="#000000">Number()</text>
<text text-anchor="start" x="743.6141" y="-411.5" font-family="Times,serif" font-size="14.00" fill="#000000">[ctxt.length_available() == True]/</text>
</g>
<!-- Map1::Dashed&#45;&gt;Map1::Name -->
<g id="edge19" class="edge">
<title>Map1::Dashed&#45;&gt;Map1::Name</title>
<path fill="none" stroke="#000000" d="M925.7379,-618.5148C931.014,-598.6469 936.5586,-566.1884 926,-540.8 921.6488,-530.3375 915.3713,-520.4808 908.1425,-511.4226"/>
<polygon fill="#000000" stroke="#000000" points="910.707,-509.0353 901.5696,-503.6727 905.3685,-513.563 910.707,-509.0353"/>
<text text-anchor="start" x="931" y="-553.4" font-family="Times,serif" font-size="14.00" fill="#000000">Exclam()/</text>
</g>
<!-- Map1::Dashed&#45;&gt;Map1::Name -->
<g id="edge20" class="edge">
<title>Map1::Dashed&#45;&gt;Map1::Name</title>
<path fill="none" stroke="#000000" d="M904.647,-618.5539C895.1435,-606.6465 883.2853,-590.3522 875.3646,-574.4 865.8205,-555.1782 858.125,-533.0237 852.255,-512.9619"/>
<polygon fill="#000000" stroke="#000000" points="855.6122,-511.9714 849.5199,-503.3034 848.8771,-513.8787 855.6122,-511.9714"/>
<text text-anchor="start" x="875" y="-553.4" font-family="Times,serif" font-size="14.00" fill="#000000">Letter()/</text>
</g>
<!-- Map1::Dashed&#45;&gt;Map1::Error -->
<g id="edge27" class="edge">
<title>Map1::Dashed&#45;&gt;Map1::Error</title>
<path fill="none" stroke="#000000" d="M957.9417,-618.5631C990.7694,-601.6842 1033,-576.3307 1033,-557.6 1033,-557.6 1033,-557.6 1033,-349 1033,-285.329 1036.7702,-213.178 1040.2499,-160.1463"/>
<polygon fill="#000000" stroke="#000000" points="1043.7441,-160.3493 1040.918,-150.1384 1036.7596,-159.883 1043.7441,-160.3493"/>
<text text-anchor="start" x="1033" y="-353.2" font-family="Times,serif" font-size="14.00" fill="#000000">Unknown()/</text>
<text text-anchor="start" x="1033" y="-336.4" font-family="Times,serif" font-size="14.00" fill="#000000">Unacceptable();</text>
</g>
<!-- Map1::Name&#45;&gt;Map1::Start -->
<g id="edge30" class="edge">
<title>Map1::Name&#45;&gt;Map1::Start</title>
<path fill="none" stroke="#000000" d="M940.5281,-474.4834C993.0949,-487.0917 1050.1613,-504.0572 1070,-521.8 1087.6258,-537.5637 1085.9003,-552.1122 1078,-574.4 1070.9269,-594.3542 1055.0731,-591.4458 1048,-611.4 1040.5162,-632.5129 1032.6718,-645.4658 1048,-661.8 1069.5608,-684.7757 1299.7299,-675.9353 1331,-679.8 1377.1986,-685.5097 1392.2686,-678.1747 1434,-698.8 1454.959,-709.1588 1498.9441,-750.0059 1512,-769.4 1531.5509,-798.4421 1532.907,-808.9246 1539,-843.4 1543.0686,-866.421 1555.013,-878.9675 1539,-896 1521.1858,-914.9483 1162.1394,-926.7497 1012.5491,-930.8614"/>
<polygon fill="#000000" stroke="#000000" points="1012.0493,-927.3736 1002.1481,-931.1441 1012.2396,-934.371 1012.0493,-927.3736"/>
<text text-anchor="start" x="1477" y="-719.8" font-family="Times,serif" font-size="14.00" fill="#000000">LArr()/</text>
<text text-anchor="start" x="1477" y="-703" font-family="Times,serif" font-size="14.00" fill="#000000">Unacceptable();</text>
</g>
<!-- Map1::Name&#45;&gt;Map1::Start -->
<g id="edge31" class="edge">
<title>Map1::Name&#45;&gt;Map1::Start</title>
<path fill="none" stroke="#000000" d="M801.5539,-503.6172C798.2866,-509.5575 795.3367,-515.686 793,-521.8 770.5377,-580.5721 817.5079,-618.3518 772,-661.8 757.4826,-675.6604 427.598,-685.4468 412.6128,-698.8 379.7931,-728.0454 366.9609,-863.9052 397,-896 413.3974,-913.5195 741.2512,-925.9632 883.2971,-930.5529"/>
<polygon fill="#000000" stroke="#000000" points="883.4975,-934.061 893.6044,-930.8826 883.7214,-927.0645 883.4975,-934.061"/>
<text text-anchor="start" x="412" y="-719.8" font-family="Times,serif" font-size="14.00" fill="#000000">Dash()/</text>
<text text-anchor="start" x="412" y="-703" font-family="Times,serif" font-size="14.00" fill="#000000">Unacceptable();</text>
</g>
<!-- Map1::Name&#45;&gt;Map1::Start -->
<g id="edge32" class="edge">
<title>Map1::Name&#45;&gt;Map1::Start</title>
<path fill="none" stroke="#000000" d="M936.4704,-503.5334C955.2754,-514.7892 974.2877,-527.4022 991,-540.8 1015.2034,-560.2031 1026.8001,-563.4717 1038,-592.4 1041.0866,-600.3724 1035.7051,-602.8801 1035,-611.4 1033.1524,-633.7237 1021.0469,-644.2766 1035,-661.8 1046.4336,-676.1592 1178.1314,-694.6014 1196,-698.8 1200.0881,-699.7606 1487.4003,-766.1021 1490,-769.4 1526.0876,-815.1795 1464.2009,-845.7374 1415,-877 1395.6348,-889.3048 1389.3297,-890.7269 1367,-896 1301.3873,-911.4944 1112.4228,-923.627 1012.1976,-929.1859"/>
<polygon fill="#000000" stroke="#000000" points="1011.987,-925.6921 1002.194,-929.7353 1012.3709,-932.6816 1011.987,-925.6921"/>
<text text-anchor="start" x="1338" y="-719.8" font-family="Times,serif" font-size="14.00" fill="#000000">Exclam()/</text>
<text text-anchor="start" x="1338" y="-703" font-family="Times,serif" font-size="14.00" fill="#000000">Unacceptable();</text>
</g>
<!-- Map1::Name&#45;&gt;Map1::Start -->
<g id="edge33" class="edge">
<title>Map1::Name&#45;&gt;Map1::Start</title>
<path fill="none" stroke="#000000" d="M818.6048,-503.4949C816.5606,-509.6135 814.6353,-515.8162 813,-521.8 796.3159,-582.8473 832.5556,-617.8702 787,-661.8 766.8353,-681.2451 562.815,-686.5697 537.6128,-698.8 518.0356,-708.3005 521.0727,-721.9233 502,-732.4 473.4674,-748.073 458.0135,-732.2334 431,-750.4 377.0544,-786.6784 372.6355,-848.4812 417,-896 432.7069,-912.8237 745.676,-925.5712 883.6295,-930.3953"/>
<polygon fill="#000000" stroke="#000000" points="883.5349,-933.894 893.6501,-930.7425 883.7774,-926.8982 883.5349,-933.894"/>
<text text-anchor="start" x="537" y="-719.8" font-family="Times,serif" font-size="14.00" fill="#000000">Letter()/</text>
<text text-anchor="start" x="537" y="-703" font-family="Times,serif" font-size="14.00" fill="#000000">Unacceptable();</text>
</g>
<!-- Map1::Name&#45;&gt;Map1::Start -->
<g id="edge34" class="edge">
<title>Map1::Name&#45;&gt;Map1::Start</title>
<path fill="none" stroke="#000000" d="M832.7052,-503.4126C826.1433,-561.3303 814.5364,-650.22 804,-661.8 760.286,-709.8439 719.4238,-667.3096 662.6128,-698.8 643.5804,-709.3497 646.7851,-723.3403 627,-732.4 555.9105,-764.9525 520.5225,-712.7431 452,-750.4 394.9883,-781.7311 392.6691,-848.3897 437,-896 452.0075,-912.1178 749.7488,-925.1463 883.687,-930.216"/>
<polygon fill="#000000" stroke="#000000" points="883.6895,-933.7185 893.8137,-930.5959 883.952,-926.7234 883.6895,-933.7185"/>
<text text-anchor="start" x="662" y="-719.8" font-family="Times,serif" font-size="14.00" fill="#000000">Number()/</text>
<text text-anchor="start" x="662" y="-703" font-family="Times,serif" font-size="14.00" fill="#000000">Unacceptable();</text>
</g>
<!-- Map1::Name&#45;&gt;Map1::Start -->
<g id="edge35" class="edge">
<title>Map1::Name&#45;&gt;Map1::Start</title>
<path fill="none" stroke="#000000" d="M836.4867,-503.5038C835.4703,-525.3408 833.7845,-551.1905 831,-574.4 826.2961,-613.6088 834.3189,-627.3582 815,-661.8 802.9296,-683.3192 789.6293,-680.0319 773.6128,-698.8 762.0866,-712.3063 767.229,-723.2703 752,-732.4 695.5226,-766.2578 501.4043,-719.8811 458,-769.4 426.3678,-805.4884 428.5519,-833.5853 449,-877 454.6497,-888.9952 459.704,-891.039 472,-896 509.2023,-911.0098 762.3853,-924.1928 883.588,-929.7272"/>
<polygon fill="#000000" stroke="#000000" points="883.6925,-933.2355 893.8407,-930.1915 884.0093,-926.2426 883.6925,-933.2355"/>
<text text-anchor="start" x="773" y="-719.8" font-family="Times,serif" font-size="14.00" fill="#000000">EOS()/</text>
<text text-anchor="start" x="773" y="-703" font-family="Times,serif" font-size="14.00" fill="#000000">Unacceptable();</text>
</g>
<!-- Map1::Signs -->
<g id="node5" class="node">
<title>Map1::Signs</title>
<path fill="none" stroke="#000000" d="M542,-258.7C542,-258.7 626,-258.7 626,-258.7 632,-258.7 638,-264.7 638,-270.7 638,-270.7 638,-282.7 638,-282.7 638,-288.7 632,-294.7 626,-294.7 626,-294.7 542,-294.7 542,-294.7 536,-294.7 530,-288.7 530,-282.7 530,-282.7 530,-270.7 530,-270.7 530,-264.7 536,-258.7 542,-258.7"/>
<text text-anchor="middle" x="583.5589" y="-272.6" font-family="Times,serif" font-size="14.00" fill="#000000">Signs</text>
</g>
<!-- Map1::Name&#45;&gt;Map1::Signs -->
<g id="edge28" class="edge">
<title>Map1::Name&#45;&gt;Map1::Signs</title>
<path fill="none" stroke="#000000" d="M829.1339,-403.1799C822.6501,-379.1581 811.6089,-351.4896 793,-332.2 773.0123,-311.4812 701.9626,-295.6679 648.2055,-286.3186"/>
<polygon fill="#000000" stroke="#000000" points="648.4906,-282.8169 638.0455,-284.5919 647.3177,-289.718 648.4906,-282.8169"/>
<text text-anchor="start" x="815" y="-353.2" font-family="Times,serif" font-size="14.00" fill="#000000">Sign()/</text>
<text text-anchor="start" x="815" y="-336.4" font-family="Times,serif" font-size="14.00" fill="#000000">add_var();</text>
</g>
<!-- Map1::End -->
<g id="node6" class="node">
<title>Map1::End</title>
<path fill="none" stroke="#000000" d="M1334,-258.7C1334,-258.7 1418,-258.7 1418,-258.7 1424,-258.7 1430,-264.7 1430,-270.7 1430,-270.7 1430,-282.7 1430,-282.7 1430,-288.7 1424,-294.7 1418,-294.7 1418,-294.7 1334,-294.7 1334,-294.7 1328,-294.7 1322,-288.7 1322,-282.7 1322,-282.7 1322,-270.7 1322,-270.7 1322,-264.7 1328,-258.7 1334,-258.7"/>
<text text-anchor="middle" x="1375.7763" y="-272.6" font-family="Times,serif" font-size="14.00" fill="#000000">End</text>
</g>
<!-- Map1::Name&#45;&gt;Map1::End -->
<g id="edge29" class="edge">
<title>Map1::Name&#45;&gt;Map1::End</title>
<path fill="none" stroke="#000000" d="M889.2997,-403.2147C895.3333,-397.0768 901.349,-390.8396 907,-384.8 928.1582,-362.1867 925.4169,-346.8545 952.6984,-332.2 1013.3003,-299.6471 1208.5754,-285.1222 1311.3589,-279.5964"/>
<polygon fill="#000000" stroke="#000000" points="1311.8093,-283.0777 1321.6122,-279.0586 1311.4426,-276.0873 1311.8093,-283.0777"/>
<text text-anchor="start" x="952" y="-353.2" font-family="Times,serif" font-size="14.00" fill="#000000">Htag()/</text>
<text text-anchor="start" x="952" y="-336.4" font-family="Times,serif" font-size="14.00" fill="#000000">add_var();</text>
</g>
<!-- Map1::Name&#45;&gt;Map1::Error -->
<g id="edge36" class="edge">
<title>Map1::Name&#45;&gt;Map1::Error</title>
<path fill="none" stroke="#000000" d="M883.4885,-403.2616C893.9131,-387.1003 902,-368.3328 902,-349 902,-349 902,-349 902,-204.4 902,-159.1898 944.0903,-127.4679 982.7593,-107.8643"/>
<polygon fill="#000000" stroke="#000000" points="984.5094,-110.9051 991.97,-103.3824 981.4466,-104.6107 984.5094,-110.9051"/>
<text text-anchor="start" x="902" y="-280.9" font-family="Times,serif" font-size="14.00" fill="#000000">Unknown()/</text>
<text text-anchor="start" x="902" y="-264.1" font-family="Times,serif" font-size="14.00" fill="#000000">Unacceptable();</text>
</g>
<!-- Map1::Signs&#45;&gt;Map1::Start -->
<g id="edge39" class="edge">
<title>Map1::Signs&#45;&gt;Map1::Start</title>
<path fill="none" stroke="#000000" d="M529.8001,-280.8108C419.4413,-289.9109 179,-313.779 179,-349 179,-860.2 179,-860.2 179,-860.2 179,-915.005 243.0348,-886.4426 297,-896 408.3251,-915.7161 742.2721,-926.8866 883.6484,-930.8435"/>
<polygon fill="#000000" stroke="#000000" points="883.8009,-934.349 893.894,-931.127 883.9947,-927.3516 883.8009,-934.349"/>
<text text-anchor="start" x="179" y="-640.8" font-family="Times,serif" font-size="14.00" fill="#000000">LArr()/</text>
<text text-anchor="start" x="179" y="-624" font-family="Times,serif" font-size="14.00" fill="#000000">Unacceptable();</text>
</g>
<!-- Map1::Signs&#45;&gt;Map1::Start -->
<g id="edge40" class="edge">
<title>Map1::Signs&#45;&gt;Map1::Start</title>
<path fill="none" stroke="#000000" d="M529.6812,-279.7038C448.2556,-285.715 304,-302.8737 304,-349 304,-592.9 304,-592.9 304,-592.9 304,-663.1278 302,-680.6722 302,-750.9 302,-860.2 302,-860.2 302,-860.2 302,-877.4513 302.9186,-886.034 317,-896 339.8469,-912.1697 727.2025,-925.753 883.4399,-930.5991"/>
<polygon fill="#000000" stroke="#000000" points="883.7332,-934.1097 893.8362,-930.9192 883.9487,-927.113 883.7332,-934.1097"/>
<text text-anchor="start" x="303" y="-640.8" font-family="Times,serif" font-size="14.00" fill="#000000">Dash()/</text>
<text text-anchor="start" x="303" y="-624" font-family="Times,serif" font-size="14.00" fill="#000000">Unacceptable();</text>
</g>
<!-- Map1::Signs&#45;&gt;Map1::Start -->
<g id="edge41" class="edge">
<title>Map1::Signs&#45;&gt;Map1::Start</title>
<path fill="none" stroke="#000000" d="M529.7885,-291.098C485.091,-304.6167 429,-326.1362 429,-349 429,-592.9 429,-592.9 429,-592.9 429,-626.8534 420.7896,-638.5986 396,-661.8 380.273,-676.5194 368.0415,-666.6248 351,-679.8 342.7016,-686.2157 341.6348,-689.3903 337,-698.8 326.3528,-720.4162 322,-726.8039 322,-750.9 322,-860.2 322,-860.2 322,-860.2 322,-877.4513 322.928,-886.0207 337,-896 359.031,-911.6234 731.5052,-925.4545 883.8453,-930.4845"/>
<polygon fill="#000000" stroke="#000000" points="883.8814,-933.9875 893.9907,-930.8172 884.1109,-926.9913 883.8814,-933.9875"/>
<text text-anchor="start" x="427" y="-640.8" font-family="Times,serif" font-size="14.00" fill="#000000">Number()/</text>
<text text-anchor="start" x="427" y="-624" font-family="Times,serif" font-size="14.00" fill="#000000">Unacceptable();</text>
</g>
<!-- Map1::Signs&#45;&gt;Map1::Start -->
<g id="edge42" class="edge">
<title>Map1::Signs&#45;&gt;Map1::Start</title>
<path fill="none" stroke="#000000" d="M529.8021,-279.9843C411.7754,-287.8625 142,-310.122 142,-349 142,-522.3 142,-522.3 142,-522.3 142,-546.3961 141.5245,-555.1734 127,-574.4 108.2551,-599.2134 85.2832,-585.8102 67.6128,-611.4 49.8764,-637.0855 54,-649.0858 54,-680.3 54,-860.2 54,-860.2 54,-860.2 54,-932.6358 141.2286,-886.212 213,-896 341.6188,-913.5407 729.155,-926.2325 883.5257,-930.7213"/>
<polygon fill="#000000" stroke="#000000" points="883.6945,-934.2275 893.7914,-931.0177 883.8966,-927.2304 883.6945,-934.2275"/>
<text text-anchor="start" x="67" y="-640.8" font-family="Times,serif" font-size="14.00" fill="#000000">Sign()/</text>
<text text-anchor="start" x="67" y="-624" font-family="Times,serif" font-size="14.00" fill="#000000">Unacceptable();</text>
</g>
<!-- Map1::Signs&#45;&gt;Map1::Start -->
<g id="edge43" class="edge">
<title>Map1::Signs&#45;&gt;Map1::Start</title>
<path fill="none" stroke="#000000" d="M571.7979,-294.8701C563.4922,-309.0007 554,-329.4307 554,-349 554,-592.9 554,-592.9 554,-592.9 554,-627.0477 547.8573,-642.0506 520,-661.8 465.9439,-700.123 429.773,-647.35 372,-679.8 342.0964,-696.5963 342,-716.6022 342,-750.9 342,-860.2 342,-860.2 342,-860.2 342,-877.4513 342.938,-886.0066 357,-896 378.1864,-911.0566 734.8476,-925.1067 883.6271,-930.3412"/>
<polygon fill="#000000" stroke="#000000" points="883.8563,-933.8512 893.9725,-930.7027 884.1008,-926.8555 883.8563,-933.8512"/>
<text text-anchor="start" x="553" y="-640.8" font-family="Times,serif" font-size="14.00" fill="#000000">Htag()/</text>
<text text-anchor="start" x="553" y="-624" font-family="Times,serif" font-size="14.00" fill="#000000">Unacceptable();</text>
</g>
<!-- Map1::Signs&#45;&gt;Map1::Start -->
<g id="edge44" class="edge">
<title>Map1::Signs&#45;&gt;Map1::Start</title>
<path fill="none" stroke="#000000" d="M590.5538,-294.9958C614.6618,-363.7731 694.5539,-605.7552 646,-661.8 627.1093,-683.6051 412.5167,-682.0882 389,-698.8 367.741,-713.9074 362,-724.8197 362,-750.9 362,-860.2 362,-860.2 362,-860.2 362,-880.9591 373.4752,-886.6313 392,-896 434.9073,-917.6999 746.5313,-927.7095 883.5983,-931.0984"/>
<polygon fill="#000000" stroke="#000000" points="883.8656,-934.6058 893.9477,-931.3498 884.0357,-927.6079 883.8656,-934.6058"/>
<text text-anchor="start" x="661" y="-640.8" font-family="Times,serif" font-size="14.00" fill="#000000">EOS()/</text>
<text text-anchor="start" x="661" y="-624" font-family="Times,serif" font-size="14.00" fill="#000000">Unacceptable();</text>
</g>
<!-- Map1::Signs&#45;&gt;Map1::Name -->
<g id="edge37" class="edge">
<title>Map1::Signs&#45;&gt;Map1::Name</title>
<path fill="none" stroke="#000000" d="M601.0604,-294.7916C606.5116,-300.6317 612.5447,-307.1578 618,-313.2 638.8169,-336.2567 639.4658,-346.7793 664.0252,-365.8 683.0546,-380.5378 704.9544,-393.8455 726.6567,-405.3787"/>
<polygon fill="#000000" stroke="#000000" points="725.1221,-408.5257 735.6076,-410.0438 728.3574,-402.3182 725.1221,-408.5257"/>
<text text-anchor="start" x="664" y="-344.8" font-family="Times,serif" font-size="14.00" fill="#000000">Exclam()/</text>
</g>
<!-- Map1::Signs&#45;&gt;Map1::Name -->
<g id="edge38" class="edge">
<title>Map1::Signs&#45;&gt;Map1::Name</title>
<path fill="none" stroke="#000000" d="M638.3096,-290.6458C664.9475,-299.4218 696.3109,-312.8274 720,-332.2 733.8867,-343.5563 730.6914,-352.1787 742.3646,-365.8 751.2024,-376.1128 761.1884,-386.4261 771.29,-396.1666"/>
<polygon fill="#000000" stroke="#000000" points="768.9874,-398.8066 778.6512,-403.1497 773.8051,-393.7282 768.9874,-398.8066"/>
<text text-anchor="start" x="742" y="-344.8" font-family="Times,serif" font-size="14.00" fill="#000000">Letter()/</text>
</g>
<!-- Map1::Signs&#45;&gt;Map1::Error -->
<g id="edge45" class="edge">
<title>Map1::Signs&#45;&gt;Map1::Error</title>
<path fill="none" stroke="#000000" d="M627.049,-258.6791C708.8864,-224.4207 887.2414,-149.7587 982.7078,-109.795"/>
<polygon fill="#000000" stroke="#000000" points="984.0896,-113.011 991.9625,-105.9209 981.3866,-106.5539 984.0896,-113.011"/>
<text text-anchor="start" x="795" y="-208.6" font-family="Times,serif" font-size="14.00" fill="#000000">Unknown()/</text>
<text text-anchor="start" x="795" y="-191.8" font-family="Times,serif" font-size="14.00" fill="#000000">Unacceptable();</text>
</g>
<!-- Map1::End&#45;&gt;Map1::Start -->
<g id="edge46" class="edge">
<title>Map1::End&#45;&gt;Map1::Start</title>
<path fill="none" stroke="#000000" d="M1350.9483,-294.9435C1336.038,-308.0719 1320,-327.2486 1320,-349 1320,-592.9 1320,-592.9 1320,-592.9 1320,-624.1328 1310.6708,-640.8415 1333.8274,-661.8 1363.9883,-689.098 1475.8511,-673.2482 1516,-679.8 1553.349,-685.8949 1571.5115,-672.7908 1599,-698.8 1616.503,-715.3611 1614,-726.8039 1614,-750.9 1614,-860.2 1614,-860.2 1614,-860.2 1614,-877.4513 1613.0903,-886.0465 1599,-896 1575.3082,-912.7362 1172.1099,-926.0739 1012.3979,-930.724"/>
<polygon fill="#000000" stroke="#000000" points="1012.1313,-927.2301 1002.2367,-931.0176 1012.3336,-934.2272 1012.1313,-927.2301"/>
<text text-anchor="start" x="1333" y="-649.2" font-family="Times,serif" font-size="14.00" fill="#000000">EOS()/</text>
<text text-anchor="start" x="1333" y="-632.4" font-family="Times,serif" font-size="14.00" fill="#000000">Acceptable();</text>
<text text-anchor="start" x="1333" y="-615.6" font-family="Times,serif" font-size="14.00" fill="#000000">push_vars();</text>
</g>
<!-- Map1::End&#45;&gt;Map1::Start -->
<g id="edge47" class="edge">
<title>Map1::End&#45;&gt;Map1::Start</title>
<path fill="none" stroke="#000000" d="M1401.0517,-294.9435C1415.962,-308.0719 1432,-327.2486 1432,-349 1432,-592.9 1432,-592.9 1432,-592.9 1432,-624.1142 1423.819,-639.4537 1445.6128,-661.8 1452.1866,-668.5404 1603.724,-692.8244 1611,-698.8 1630.5603,-714.8645 1634,-725.5885 1634,-750.9 1634,-860.2 1634,-860.2 1634,-860.2 1634,-880.9591 1622.5601,-886.7013 1604,-896 1552.0671,-922.0186 1167.4579,-929.7406 1012.461,-931.81"/>
<polygon fill="#000000" stroke="#000000" points="1012.1011,-928.3143 1002.1474,-931.9438 1012.192,-935.3137 1012.1011,-928.3143"/>
<text text-anchor="start" x="1445" y="-640.8" font-family="Times,serif" font-size="14.00" fill="#000000">LArr()/</text>
<text text-anchor="start" x="1445" y="-624" font-family="Times,serif" font-size="14.00" fill="#000000">Unacceptable();</text>
</g>
<!-- Map1::End&#45;&gt;Map1::Start -->
<g id="edge48" class="edge">
<title>Map1::End&#45;&gt;Map1::Start</title>
<path fill="none" stroke="#000000" d="M1430.306,-287.4738C1483.6207,-299.6518 1557,-321.4222 1557,-349 1557,-592.9 1557,-592.9 1557,-592.9 1557,-624.1142 1553.2865,-635.8361 1570.6128,-661.8 1587.0453,-686.4245 1606.0932,-676.8885 1626,-698.8 1643.6768,-718.257 1654,-724.6123 1654,-750.9 1654,-860.2 1654,-860.2 1654,-860.2 1654,-885.7571 1633.2136,-887.8229 1609,-896 1553.5491,-914.7261 1167.8548,-926.7607 1012.5613,-930.8967"/>
<polygon fill="#000000" stroke="#000000" points="1012.1327,-927.4067 1002.2285,-931.1693 1012.3174,-934.4043 1012.1327,-927.4067"/>
<text text-anchor="start" x="1570" y="-640.8" font-family="Times,serif" font-size="14.00" fill="#000000">Dash()/</text>
<text text-anchor="start" x="1570" y="-624" font-family="Times,serif" font-size="14.00" fill="#000000">Unacceptable();</text>
</g>
<!-- Map1::End&#45;&gt;Map1::Start -->
<g id="edge49" class="edge">
<title>Map1::End&#45;&gt;Map1::Start</title>
<path fill="none" stroke="#000000" d="M1430.0023,-278.4671C1517.8488,-282.8281 1682,-297.824 1682,-349 1682,-860.2 1682,-860.2 1682,-860.2 1682,-893.9621 1647.7595,-887.8334 1615,-896 1502.0874,-924.148 1156.3116,-930.5948 1012.1532,-932.0666"/>
<polygon fill="#000000" stroke="#000000" points="1012.0936,-928.5669 1002.1282,-932.1642 1012.1619,-935.5666 1012.0936,-928.5669"/>
<text text-anchor="start" x="1682" y="-640.8" font-family="Times,serif" font-size="14.00" fill="#000000">Exclam()/</text>
<text text-anchor="start" x="1682" y="-624" font-family="Times,serif" font-size="14.00" fill="#000000">Unacceptable();</text>
</g>
<!-- Map1::End&#45;&gt;Map1::Start -->
<g id="edge50" class="edge">
<title>Map1::End&#45;&gt;Map1::Start</title>
<path fill="none" stroke="#000000" d="M1430.0509,-281.757C1532.5442,-292.0788 1745,-317.2981 1745,-349 1745,-522.3 1745,-522.3 1745,-522.3 1745,-597.7352 1807,-604.8648 1807,-680.3 1807,-860.2 1807,-860.2 1807,-860.2 1807,-900.0783 1211.3929,-923.6749 1012.0909,-930.4545"/>
<polygon fill="#000000" stroke="#000000" points="1011.936,-926.9577 1002.0597,-930.7929 1012.1721,-933.9537 1011.936,-926.9577"/>
<text text-anchor="start" x="1805" y="-640.8" font-family="Times,serif" font-size="14.00" fill="#000000">Letter()/</text>
<text text-anchor="start" x="1805" y="-624" font-family="Times,serif" font-size="14.00" fill="#000000">Unacceptable();</text>
</g>
<!-- Map1::End&#45;&gt;Map1::Start -->
<g id="edge51" class="edge">
<title>Map1::End&#45;&gt;Map1::Start</title>
<path fill="none" stroke="#000000" d="M1430.0235,-281.9848C1488.2528,-288.0391 1583.5455,-298.9851 1665,-313.2 1718.9455,-322.6142 1765,-307.2745 1765,-349 1765,-522.3 1765,-522.3 1765,-522.3 1765,-546.3961 1763.163,-557.1622 1780,-574.4 1818.4043,-613.7185 1856.2515,-575.6523 1898,-611.4 1923.9382,-633.6099 1932,-646.1523 1932,-680.3 1932,-860.2 1932,-860.2 1932,-860.2 1932,-906.4644 1231.0204,-926.1371 1012.3494,-931.1485"/>
<polygon fill="#000000" stroke="#000000" points="1012.2238,-927.6503 1002.3057,-931.3761 1012.3825,-934.6485 1012.2238,-927.6503"/>
<text text-anchor="start" x="1930" y="-640.8" font-family="Times,serif" font-size="14.00" fill="#000000">Number()/</text>
<text text-anchor="start" x="1930" y="-624" font-family="Times,serif" font-size="14.00" fill="#000000">Unacceptable();</text>
</g>
<!-- Map1::End&#45;&gt;Map1::Start -->
<g id="edge52" class="edge">
<title>Map1::End&#45;&gt;Map1::Start</title>
<path fill="none" stroke="#000000" d="M1321.904,-281.3847C1277.8199,-286.3957 1220.4286,-296.0472 1205,-313.2 1148.0385,-376.5275 1220.5163,-426.3818 1185,-503.8 1163.9046,-549.7836 1025.0998,-599.035 1083.6128,-661.8 1103.0861,-682.6884 1311.5258,-677.6193 1340,-679.8 1365.4573,-681.7496 1550.8302,-680.863 1569,-698.8 1585.5544,-715.1423 1574,-727.6381 1574,-750.9 1574,-860.2 1574,-860.2 1574,-860.2 1574,-880.9591 1562.534,-886.6496 1544,-896 1497.4798,-919.4694 1156.4305,-928.5877 1012.162,-931.4208"/>
<polygon fill="#000000" stroke="#000000" points="1012.0523,-927.9222 1002.1215,-931.6141 1012.187,-934.9209 1012.0523,-927.9222"/>
<text text-anchor="start" x="1083" y="-640.8" font-family="Times,serif" font-size="14.00" fill="#000000">Sign()/</text>
<text text-anchor="start" x="1083" y="-624" font-family="Times,serif" font-size="14.00" fill="#000000">Unacceptable();</text>
</g>
<!-- Map1::End&#45;&gt;Map1::Start -->
<g id="edge53" class="edge">
<title>Map1::End&#45;&gt;Map1::Start</title>
<path fill="none" stroke="#000000" d="M1348.3415,-294.8363C1336.0458,-304.4221 1322.6471,-317.2957 1315,-332.2 1214.3658,-528.3371 1196.3887,-630.4665 1224.6128,-661.8 1237.8243,-676.467 1562.7578,-686.2564 1578,-698.8 1596.7037,-714.1922 1594,-726.6771 1594,-750.9 1594,-860.2 1594,-860.2 1594,-860.2 1594,-885.7571 1573.191,-887.7564 1549,-896 1499.2677,-912.9473 1156.9677,-925.7878 1012.3102,-930.5193"/>
<polygon fill="#000000" stroke="#000000" points="1012.1244,-927.0234 1002.2432,-930.8459 1012.3515,-934.0197 1012.1244,-927.0234"/>
<text text-anchor="start" x="1224" y="-640.8" font-family="Times,serif" font-size="14.00" fill="#000000">Htag()/</text>
<text text-anchor="start" x="1224" y="-624" font-family="Times,serif" font-size="14.00" fill="#000000">Unacceptable();</text>
</g>
<!-- Map1::End&#45;&gt;Map1::Error -->
<g id="edge54" class="edge">
<title>Map1::End&#45;&gt;Map1::Error</title>
<path fill="none" stroke="#000000" d="M1345.2507,-258.6791C1291.5459,-227.2048 1179.6501,-161.6271 1108.938,-120.1855"/>
<polygon fill="#000000" stroke="#000000" points="1110.496,-117.0418 1100.0988,-115.0051 1106.9566,-123.0811 1110.496,-117.0418"/>
<text text-anchor="start" x="1280" y="-208.6" font-family="Times,serif" font-size="14.00" fill="#000000">Unknown()/</text>
<text text-anchor="start" x="1280" y="-191.8" font-family="Times,serif" font-size="14.00" fill="#000000">Unacceptable();</text>
</g>
<!-- Map1::Error&#45;&gt;Map1::Start -->
<g id="edge55" class="edge">
<title>Map1::Error&#45;&gt;Map1::Start</title>
<path fill="none" stroke="#000000" d="M1100.0663,-86.249C1273.0963,-96.3991 1802,-133.2445 1802,-204.4 1802,-522.3 1802,-522.3 1802,-522.3 1802,-546.2796 1798.3529,-558.1886 1816.0224,-574.4 1884.8803,-637.5757 1954.8095,-547.5044 2023,-611.4 2046.0156,-632.966 2040,-648.7594 2040,-680.3 2040,-860.2 2040,-860.2 2040,-860.2 2040,-912.0352 1246.2704,-928.037 1012.2155,-931.6288"/>
<polygon fill="#000000" stroke="#000000" points="1012.0984,-928.1301 1002.1524,-931.7809 1012.2042,-935.1293 1012.0984,-928.1301"/>
<text text-anchor="start" x="1816" y="-553.4" font-family="Times,serif" font-size="14.00" fill="#000000">Dash()/</text>
</g>
<!-- Map1::Error&#45;&gt;Map1::Start -->
<g id="edge56" class="edge">
<title>Map1::Error&#45;&gt;Map1::Start</title>
<path fill="none" stroke="#000000" d="M1100.0785,-85.4312C1284.8885,-93.4236 1880,-125.3011 1880,-204.4 1880,-522.3 1880,-522.3 1880,-522.3 1880,-546.2572 1876.8463,-557.5006 1893.8274,-574.4 1916.9674,-597.4287 2012.0044,-589.2642 2036,-611.4 2059.8343,-633.387 2060,-647.8732 2060,-680.3 2060,-860.2 2060,-860.2 2060,-860.2 2060,-913.0698 1248.9941,-928.3676 1012.1859,-931.7075"/>
<polygon fill="#000000" stroke="#000000" points="1011.9603,-928.2102 1002.0099,-931.8486 1012.0575,-935.2095 1011.9603,-928.2102"/>
<text text-anchor="start" x="1893" y="-561.8" font-family="Times,serif" font-size="14.00" fill="#000000">EOS()/</text>
<text text-anchor="start" x="1893" y="-545" font-family="Times,serif" font-size="14.00" fill="#000000">Acceptable();</text>
</g>
<!-- Map1::Error&#45;&gt;Map1::Start -->
<g id="edge57" class="edge">
<title>Map1::Error&#45;&gt;Map1::Start</title>
<path fill="none" stroke="#000000" d="M1100.2588,-84.4943C1301.2716,-89.6267 1992,-113.8504 1992,-204.4 1992,-522.3 1992,-522.3 1992,-522.3 1992,-570.0417 2029.56,-569.2608 2052,-611.4 2067.5365,-640.5754 2080,-647.2457 2080,-680.3 2080,-860.2 2080,-860.2 2080,-860.2 2080,-935.2396 1989.7508,-889.4224 1915,-896 1738.9449,-911.4917 1199.1055,-926.1736 1012.3631,-930.9127"/>
<polygon fill="#000000" stroke="#000000" points="1012.0635,-927.4191 1002.1552,-931.1708 1012.2405,-934.4168 1012.0635,-927.4191"/>
<text text-anchor="start" x="2019" y="-561.8" font-family="Times,serif" font-size="14.00" fill="#000000">LArr()/</text>
<text text-anchor="start" x="2019" y="-545" font-family="Times,serif" font-size="14.00" fill="#000000">Unacceptable();</text>
</g>
<!-- %3 -->
<g id="node8" class="node">
<title>%3</title>
<ellipse fill="#000000" stroke="#000000" cx="948" cy="-1035" rx="9" ry="9"/>
</g>
<!-- %3&#45;&gt;Map1::Start -->
<g id="edge58" class="edge">
<title>%3&#45;&gt;Map1::Start</title>
<path fill="none" stroke="#000000" d="M948,-1025.9038C948,-1011.4196 948,-982.5224 948,-960.6848"/>
<polygon fill="#000000" stroke="#000000" points="951.5001,-960.6258 948,-950.6258 944.5001,-960.6258 951.5001,-960.6258"/>
</g>
</g>
</svg>
